<svg xmlns="http://www.w3.org/2000/svg" xmlns:xlink="http://www.w3.org/1999/xlink" width="500" zoomAndPan="magnify" viewBox="0 0 375 374.999991" height="500" preserveAspectRatio="xMidYMid meet" version="1.0"><defs><g/><clipPath id="id1"><path d="M 96 142.351562 L 137 142.351562 L 137 218.851562 L 96 218.851562 Z M 96 142.351562 " clip-rule="nonzero"/></clipPath><clipPath id="id2"><path d="M 76.652344 158 L 133 158 L 133 218.851562 L 76.652344 218.851562 Z M 76.652344 158 " clip-rule="nonzero"/></clipPath><clipPath id="id3"><path d="M 108 146 L 178.652344 146 L 178.652344 195 L 108 195 Z M 108 146 " clip-rule="nonzero"/></clipPath></defs><g clip-path="url(#id1)"><path fill="#004aad" d="M 136.691406 194.210938 L 136.691406 218.082031 C 126.054688 189.296875 96.785156 188.53125 96.785156 188.53125 L 96.785156 142.351562 C 110.679688 144.09375 119.296875 149.445312 125.652344 154.910156 L 101.769531 167.503906 L 125.707031 171.195312 C 124.660156 175.988281 125.332031 180.957031 127.648438 185.332031 C 129.691406 189.214844 132.839844 192.28125 136.691406 194.210938 Z M 136.691406 194.210938 " fill-opacity="1" fill-rule="nonzero"/></g><path fill="#004aad" d="M 134.378906 217.925781 C 134.378906 217.925781 125.289062 195.300781 93.234375 192.066406 C 93.234375 174.367188 93.234375 149.125 93.234375 149.125 L 86.914062 149.125 L 86.914062 195.609375 C 86.914062 195.609375 114.957031 194.53125 134.378906 217.925781 Z M 134.378906 217.925781 " fill-opacity="1" fill-rule="nonzero"/><g clip-path="url(#id2)"><path fill="#004aad" d="M 83.0625 158.820312 L 83.0625 201.613281 C 83.0625 201.613281 118.042969 198.53125 132.683594 218.851562 C 132.683594 218.851562 121.433594 205.921875 76.746094 205.152344 C 76.746094 192.683594 76.746094 158.824219 76.746094 158.824219 Z M 83.0625 158.820312 " fill-opacity="1" fill-rule="nonzero"/></g><g clip-path="url(#id3)"><path fill="#004aad" d="M 170.433594 155.660156 L 161.40625 160.425781 C 163.09375 161.925781 164.558594 163.734375 165.683594 165.855469 C 170.703125 175.359375 167.050781 187.128906 157.550781 192.132812 C 148.035156 197.148438 136.253906 193.511719 131.242188 184.011719 C 128.761719 179.320312 128.40625 174.089844 129.808594 169.382812 L 108.519531 166.097656 L 145.976562 146.355469 L 178.5625 151.382812 L 171.78125 154.953125 Z M 170.433594 155.660156 " fill-opacity="1" fill-rule="nonzero"/></g><g fill="#004aad" fill-opacity="1"><g transform="translate(143.838833, 212.681338)"><g><path d="M 7.421875 -12.28125 C 7.472656 -12.28125 7.5 -12.21875 7.5 -12.09375 L 7.734375 -10.21875 C 7.753906 -10.101562 7.765625 -10.03125 7.765625 -10 C 7.765625 -9.96875 7.71875 -9.953125 7.625 -9.953125 C 7.539062 -9.953125 7.484375 -9.960938 7.453125 -9.984375 C 7.429688 -10.003906 7.410156 -10.039062 7.390625 -10.09375 C 7.367188 -10.15625 7.34375 -10.21875 7.3125 -10.28125 C 7.28125 -10.351562 7.242188 -10.425781 7.203125 -10.5 C 7.078125 -10.769531 6.882812 -11.035156 6.625 -11.296875 C 5.976562 -11.921875 5.253906 -12.234375 4.453125 -12.234375 C 3.960938 -12.234375 3.5 -12.070312 3.0625 -11.75 C 2.632812 -11.4375 2.421875 -11.066406 2.421875 -10.640625 C 2.421875 -10.210938 2.5 -9.835938 2.65625 -9.515625 C 2.820312 -9.203125 3.035156 -8.910156 3.296875 -8.640625 C 3.554688 -8.367188 3.859375 -8.109375 4.203125 -7.859375 C 4.546875 -7.617188 4.890625 -7.375 5.234375 -7.125 C 6.171875 -6.46875 6.832031 -5.910156 7.21875 -5.453125 C 7.832031 -4.734375 8.171875 -3.929688 8.234375 -3.046875 C 8.234375 -2.046875 7.847656 -1.25 7.078125 -0.65625 C 6.316406 -0.0625 5.425781 0.234375 4.40625 0.234375 C 3.757812 0.234375 3.242188 0.164062 2.859375 0.03125 C 2.472656 -0.09375 2.207031 -0.179688 2.0625 -0.234375 C 1.914062 -0.296875 1.804688 -0.328125 1.734375 -0.328125 C 1.671875 -0.328125 1.632812 -0.328125 1.625 -0.328125 L 1.1875 -0.234375 C 1.113281 -0.234375 1.066406 -0.296875 1.046875 -0.421875 C 0.878906 -1.878906 0.796875 -2.648438 0.796875 -2.734375 C 0.796875 -2.828125 0.800781 -2.890625 0.8125 -2.921875 C 0.820312 -2.953125 0.863281 -2.96875 0.9375 -2.96875 C 1.09375 -2.96875 1.238281 -2.734375 1.375 -2.265625 C 1.988281 -0.953125 3.015625 -0.296875 4.453125 -0.296875 C 5.109375 -0.296875 5.664062 -0.492188 6.125 -0.890625 C 6.59375 -1.285156 6.828125 -1.800781 6.828125 -2.4375 C 6.828125 -3.457031 6.21875 -4.410156 5 -5.296875 C 4.65625 -5.535156 4.15625 -5.875 3.5 -6.3125 C 2.851562 -6.757812 2.335938 -7.203125 1.953125 -7.640625 C 1.347656 -8.316406 1.046875 -9.070312 1.046875 -9.90625 C 1.046875 -10.738281 1.378906 -11.421875 2.046875 -11.953125 C 2.710938 -12.492188 3.472656 -12.765625 4.328125 -12.765625 C 4.773438 -12.765625 5.265625 -12.6875 5.796875 -12.53125 C 6.335938 -12.382812 6.710938 -12.28125 6.921875 -12.21875 Z M 7.421875 -12.28125 "/></g></g></g><g fill="#004aad" fill-opacity="1"><g transform="translate(153.756418, 212.681338)"><g><path d="M 4.40625 -0.359375 C 4.4375 -0.359375 4.453125 -0.332031 4.453125 -0.28125 L 4.453125 -0.078125 C 4.453125 -0.0234375 4.4375 0 4.40625 0 L 0.296875 0 C 0.253906 0 0.234375 -0.0234375 0.234375 -0.078125 L 0.234375 -0.28125 C 0.234375 -0.332031 0.253906 -0.359375 0.296875 -0.359375 C 1.253906 -0.359375 1.773438 -0.769531 1.859375 -1.59375 C 1.890625 -1.832031 1.914062 -2.226562 1.9375 -2.78125 C 1.96875 -3.34375 2.046875 -4.546875 2.171875 -6.390625 C 2.296875 -8.242188 2.359375 -9.742188 2.359375 -10.890625 L 2.359375 -11.21875 C 2.359375 -11.445312 2.222656 -11.640625 1.953125 -11.796875 C 1.691406 -11.960938 1.5 -12.046875 1.375 -12.046875 C 1.257812 -12.046875 1.203125 -12.066406 1.203125 -12.109375 L 1.203125 -12.328125 C 1.203125 -12.367188 1.222656 -12.390625 1.265625 -12.390625 L 3.8125 -12.390625 C 3.914062 -12.367188 4.003906 -12.304688 4.078125 -12.203125 L 8.203125 -3.015625 C 8.234375 -2.972656 8.253906 -2.9375 8.265625 -2.90625 C 8.285156 -2.875 8.332031 -2.859375 8.40625 -2.859375 C 8.476562 -2.867188 8.53125 -2.925781 8.5625 -3.03125 L 12.640625 -12.046875 C 12.765625 -12.273438 12.875 -12.390625 12.96875 -12.390625 L 15.53125 -12.390625 C 15.570312 -12.390625 15.59375 -12.367188 15.59375 -12.328125 L 15.59375 -12.109375 C 15.59375 -12.066406 15.582031 -12.046875 15.5625 -12.046875 C 15.382812 -12.046875 15.164062 -11.984375 14.90625 -11.859375 C 14.507812 -11.691406 14.3125 -11.429688 14.3125 -11.078125 L 14.84375 -1.375 C 14.851562 -1.070312 15.007812 -0.828125 15.3125 -0.640625 C 15.625 -0.453125 16.023438 -0.359375 16.515625 -0.359375 C 16.554688 -0.359375 16.578125 -0.332031 16.578125 -0.28125 L 16.578125 -0.078125 C 16.578125 -0.0234375 16.554688 0 16.515625 0 L 11.515625 0 C 11.472656 0 11.453125 -0.0234375 11.453125 -0.078125 L 11.453125 -0.28125 C 11.453125 -0.332031 11.472656 -0.359375 11.515625 -0.359375 C 12.566406 -0.359375 13.09375 -0.609375 13.09375 -1.109375 L 12.625 -9.515625 C 12.625 -9.566406 12.609375 -9.59375 12.578125 -9.59375 C 12.554688 -9.59375 12.535156 -9.566406 12.515625 -9.515625 L 8.140625 -0.0625 C 8.117188 -0.0195312 8.050781 0 7.9375 0 C 7.832031 0 7.769531 -0.0234375 7.75 -0.078125 L 3.453125 -9.546875 C 3.410156 -9.628906 3.375 -9.671875 3.34375 -9.671875 C 3.3125 -9.671875 3.296875 -9.601562 3.296875 -9.46875 C 3.296875 -9.207031 3.222656 -7.9375 3.078125 -5.65625 C 2.941406 -3.382812 2.875 -1.96875 2.875 -1.40625 L 2.875 -1.046875 C 2.945312 -0.710938 3.28125 -0.492188 3.875 -0.390625 C 4.039062 -0.367188 4.21875 -0.359375 4.40625 -0.359375 Z M 4.40625 -0.359375 "/></g></g></g><g fill="#004aad" fill-opacity="1"><g transform="translate(171.610526, 212.681338)"><g><path d="M 4.671875 -0.078125 C 4.671875 -0.0234375 4.648438 0 4.609375 0 L 0.109375 0 C 0.0664062 0 0.046875 -0.0234375 0.046875 -0.078125 L 0.046875 -0.28125 C 0.046875 -0.332031 0.0820312 -0.359375 0.15625 -0.359375 C 0.957031 -0.390625 1.5 -0.816406 1.78125 -1.640625 L 5.375 -12.015625 C 5.375 -12.023438 5.375 -12.039062 5.375 -12.0625 L 5.28125 -12.34375 C 5.28125 -12.375 5.289062 -12.390625 5.3125 -12.390625 L 7.078125 -12.390625 C 7.085938 -12.390625 7.101562 -12.382812 7.125 -12.375 C 7.144531 -12.363281 7.160156 -12.347656 7.171875 -12.328125 L 10.890625 -1.890625 C 10.972656 -1.734375 11.035156 -1.585938 11.078125 -1.453125 C 11.128906 -1.328125 11.191406 -1.210938 11.265625 -1.109375 C 11.398438 -0.867188 11.628906 -0.679688 11.953125 -0.546875 C 12.222656 -0.421875 12.46875 -0.359375 12.6875 -0.359375 C 12.738281 -0.359375 12.765625 -0.328125 12.765625 -0.265625 L 12.765625 -0.078125 C 12.765625 -0.0234375 12.738281 0 12.6875 0 L 7.3125 0 C 7.269531 0 7.25 -0.0234375 7.25 -0.078125 L 7.25 -0.28125 C 7.25 -0.332031 7.351562 -0.363281 7.5625 -0.375 C 7.78125 -0.382812 7.960938 -0.394531 8.109375 -0.40625 C 8.921875 -0.488281 9.328125 -0.765625 9.328125 -1.234375 C 9.328125 -1.265625 9.320312 -1.304688 9.3125 -1.359375 L 7.984375 -5.09375 C 7.972656 -5.101562 7.960938 -5.128906 7.953125 -5.171875 C 7.878906 -5.367188 7.753906 -5.46875 7.578125 -5.46875 L 4.453125 -5.46875 C 4.273438 -5.46875 4.140625 -5.375 4.046875 -5.1875 C 4.023438 -5.144531 4.015625 -5.117188 4.015625 -5.109375 L 2.703125 -1.25 L 2.703125 -1.171875 C 2.703125 -1.023438 2.78125 -0.890625 2.9375 -0.765625 C 3.289062 -0.492188 3.769531 -0.359375 4.375 -0.359375 L 4.609375 -0.359375 C 4.648438 -0.359375 4.671875 -0.332031 4.671875 -0.28125 Z M 7.28125 -6.453125 C 7.382812 -6.453125 7.4375 -6.492188 7.4375 -6.578125 C 7.4375 -6.628906 7.425781 -6.679688 7.40625 -6.734375 L 6.09375 -10.34375 C 6.03125 -10.5 5.984375 -10.578125 5.953125 -10.578125 C 5.929688 -10.578125 5.882812 -10.5 5.8125 -10.34375 L 4.59375 -6.734375 C 4.5625 -6.679688 4.546875 -6.617188 4.546875 -6.546875 C 4.546875 -6.484375 4.59375 -6.453125 4.6875 -6.453125 Z M 7.28125 -6.453125 "/></g></g></g><g fill="#004aad" fill-opacity="1"><g transform="translate(185.316195, 212.681338)"><g><path d="M 0.421875 0 C 0.378906 0 0.359375 -0.0234375 0.359375 -0.078125 L 0.359375 -0.28125 C 0.359375 -0.332031 0.378906 -0.359375 0.421875 -0.359375 L 0.640625 -0.359375 C 1.140625 -0.359375 1.578125 -0.460938 1.953125 -0.671875 C 2.109375 -0.753906 2.234375 -0.890625 2.328125 -1.078125 C 2.429688 -1.265625 2.484375 -1.472656 2.484375 -1.703125 L 2.484375 -11 C 2.484375 -11.363281 2.25 -11.640625 1.78125 -11.828125 C 1.445312 -11.972656 1.097656 -12.046875 0.734375 -12.046875 L 0.53125 -12.046875 C 0.488281 -12.046875 0.46875 -12.066406 0.46875 -12.109375 L 0.46875 -12.328125 C 0.46875 -12.367188 0.488281 -12.390625 0.53125 -12.390625 L 6.484375 -12.390625 C 6.535156 -12.390625 6.5625 -12.367188 6.5625 -12.328125 L 6.5625 -12.109375 C 6.5625 -12.066406 6.535156 -12.046875 6.484375 -12.046875 L 6.109375 -12.046875 C 5.503906 -12.046875 4.972656 -11.957031 4.515625 -11.78125 C 4.378906 -11.738281 4.289062 -11.660156 4.25 -11.546875 C 4.207031 -11.441406 4.1875 -11.257812 4.1875 -11 L 4.1875 -1.25 C 4.195312 -1.144531 4.25 -1.046875 4.34375 -0.953125 C 4.4375 -0.867188 4.546875 -0.828125 4.671875 -0.828125 L 8.140625 -0.828125 C 8.660156 -0.828125 9.171875 -1.140625 9.671875 -1.765625 C 9.804688 -1.921875 9.972656 -2.132812 10.171875 -2.40625 C 10.378906 -2.6875 10.503906 -2.84375 10.546875 -2.875 C 10.734375 -3.007812 10.828125 -3.003906 10.828125 -2.859375 C 10.828125 -2.828125 10.816406 -2.796875 10.796875 -2.765625 L 9.46875 -0.15625 C 9.414062 -0.0507812 9.359375 0 9.296875 0 Z M 0.421875 0 "/></g></g></g><g fill="#004aad" fill-opacity="1"><g transform="translate(197.105852, 212.681338)"><g><path d="M 0.421875 0 C 0.378906 0 0.359375 -0.0234375 0.359375 -0.078125 L 0.359375 -0.28125 C 0.359375 -0.332031 0.378906 -0.359375 0.421875 -0.359375 L 0.640625 -0.359375 C 1.140625 -0.359375 1.578125 -0.460938 1.953125 -0.671875 C 2.109375 -0.753906 2.234375 -0.890625 2.328125 -1.078125 C 2.429688 -1.265625 2.484375 -1.472656 2.484375 -1.703125 L 2.484375 -11 C 2.484375 -11.363281 2.25 -11.640625 1.78125 -11.828125 C 1.445312 -11.972656 1.097656 -12.046875 0.734375 -12.046875 L 0.53125 -12.046875 C 0.488281 -12.046875 0.46875 -12.066406 0.46875 -12.109375 L 0.46875 -12.328125 C 0.46875 -12.367188 0.488281 -12.390625 0.53125 -12.390625 L 6.484375 -12.390625 C 6.535156 -12.390625 6.5625 -12.367188 6.5625 -12.328125 L 6.5625 -12.109375 C 6.5625 -12.066406 6.535156 -12.046875 6.484375 -12.046875 L 6.109375 -12.046875 C 5.503906 -12.046875 4.972656 -11.957031 4.515625 -11.78125 C 4.378906 -11.738281 4.289062 -11.660156 4.25 -11.546875 C 4.207031 -11.441406 4.1875 -11.257812 4.1875 -11 L 4.1875 -1.25 C 4.195312 -1.144531 4.25 -1.046875 4.34375 -0.953125 C 4.4375 -0.867188 4.546875 -0.828125 4.671875 -0.828125 L 8.140625 -0.828125 C 8.660156 -0.828125 9.171875 -1.140625 9.671875 -1.765625 C 9.804688 -1.921875 9.972656 -2.132812 10.171875 -2.40625 C 10.378906 -2.6875 10.503906 -2.84375 10.546875 -2.875 C 10.734375 -3.007812 10.828125 -3.003906 10.828125 -2.859375 C 10.828125 -2.828125 10.816406 -2.796875 10.796875 -2.765625 L 9.46875 -0.15625 C 9.414062 -0.0507812 9.359375 0 9.296875 0 Z M 0.421875 0 "/></g></g></g><g fill="#004aad" fill-opacity="1"><g transform="translate(208.895509, 212.681338)"><g><path d="M 3.5 -0.28125 C 3.5 -0.332031 3.53125 -0.359375 3.59375 -0.359375 L 3.828125 -0.359375 C 4.398438 -0.359375 4.859375 -0.476562 5.203125 -0.71875 C 5.554688 -0.96875 5.734375 -1.253906 5.734375 -1.578125 L 5.734375 -11.3125 C 5.734375 -11.4375 5.707031 -11.503906 5.65625 -11.515625 C 5.613281 -11.535156 5.554688 -11.550781 5.484375 -11.5625 L 2.109375 -11.5625 C 1.566406 -11.4375 1.207031 -11.015625 1.03125 -10.296875 C 0.9375 -9.910156 0.878906 -9.660156 0.859375 -9.546875 C 0.847656 -9.441406 0.820312 -9.390625 0.78125 -9.390625 L 0.609375 -9.390625 C 0.578125 -9.390625 0.5625 -9.40625 0.5625 -9.4375 L 0.5625 -9.71875 L 0.890625 -12.46875 C 0.921875 -12.644531 0.976562 -12.734375 1.0625 -12.734375 C 1.144531 -12.734375 1.234375 -12.675781 1.328125 -12.5625 C 1.421875 -12.445312 1.597656 -12.390625 1.859375 -12.390625 L 11.34375 -12.390625 C 11.59375 -12.390625 11.742188 -12.414062 11.796875 -12.46875 C 11.847656 -12.53125 11.894531 -12.585938 11.9375 -12.640625 C 11.988281 -12.703125 12.050781 -12.734375 12.125 -12.734375 C 12.195312 -12.734375 12.242188 -12.703125 12.265625 -12.640625 C 12.285156 -12.585938 12.300781 -12.53125 12.3125 -12.46875 L 12.640625 -9.71875 L 12.640625 -9.4375 C 12.640625 -9.40625 12.625 -9.390625 12.59375 -9.390625 L 12.421875 -9.390625 C 12.378906 -9.390625 12.347656 -9.4375 12.328125 -9.53125 C 12.234375 -10.113281 12.097656 -10.578125 11.921875 -10.921875 C 11.742188 -11.265625 11.46875 -11.476562 11.09375 -11.5625 L 7.703125 -11.5625 C 7.640625 -11.550781 7.582031 -11.535156 7.53125 -11.515625 C 7.476562 -11.503906 7.453125 -11.4375 7.453125 -11.3125 L 7.453125 -1.578125 C 7.453125 -1.253906 7.625 -0.96875 7.96875 -0.71875 C 8.320312 -0.476562 8.785156 -0.359375 9.359375 -0.359375 L 9.609375 -0.359375 C 9.660156 -0.359375 9.6875 -0.332031 9.6875 -0.28125 L 9.6875 -0.078125 C 9.6875 -0.0234375 9.660156 0 9.609375 0 L 3.578125 0 C 3.523438 0 3.5 -0.0234375 3.5 -0.078125 Z M 3.5 -0.28125 "/></g></g></g><g fill="#004aad" fill-opacity="1"><g transform="translate(222.996689, 212.681338)"><g><path d="M 4.671875 -0.078125 C 4.671875 -0.0234375 4.648438 0 4.609375 0 L 0.109375 0 C 0.0664062 0 0.046875 -0.0234375 0.046875 -0.078125 L 0.046875 -0.28125 C 0.046875 -0.332031 0.0820312 -0.359375 0.15625 -0.359375 C 0.957031 -0.390625 1.5 -0.816406 1.78125 -1.640625 L 5.375 -12.015625 C 5.375 -12.023438 5.375 -12.039062 5.375 -12.0625 L 5.28125 -12.34375 C 5.28125 -12.375 5.289062 -12.390625 5.3125 -12.390625 L 7.078125 -12.390625 C 7.085938 -12.390625 7.101562 -12.382812 7.125 -12.375 C 7.144531 -12.363281 7.160156 -12.347656 7.171875 -12.328125 L 10.890625 -1.890625 C 10.972656 -1.734375 11.035156 -1.585938 11.078125 -1.453125 C 11.128906 -1.328125 11.191406 -1.210938 11.265625 -1.109375 C 11.398438 -0.867188 11.628906 -0.679688 11.953125 -0.546875 C 12.222656 -0.421875 12.46875 -0.359375 12.6875 -0.359375 C 12.738281 -0.359375 12.765625 -0.328125 12.765625 -0.265625 L 12.765625 -0.078125 C 12.765625 -0.0234375 12.738281 0 12.6875 0 L 7.3125 0 C 7.269531 0 7.25 -0.0234375 7.25 -0.078125 L 7.25 -0.28125 C 7.25 -0.332031 7.351562 -0.363281 7.5625 -0.375 C 7.78125 -0.382812 7.960938 -0.394531 8.109375 -0.40625 C 8.921875 -0.488281 9.328125 -0.765625 9.328125 -1.234375 C 9.328125 -1.265625 9.320312 -1.304688 9.3125 -1.359375 L 7.984375 -5.09375 C 7.972656 -5.101562 7.960938 -5.128906 7.953125 -5.171875 C 7.878906 -5.367188 7.753906 -5.46875 7.578125 -5.46875 L 4.453125 -5.46875 C 4.273438 -5.46875 4.140625 -5.375 4.046875 -5.1875 C 4.023438 -5.144531 4.015625 -5.117188 4.015625 -5.109375 L 2.703125 -1.25 L 2.703125 -1.171875 C 2.703125 -1.023438 2.78125 -0.890625 2.9375 -0.765625 C 3.289062 -0.492188 3.769531 -0.359375 4.375 -0.359375 L 4.609375 -0.359375 C 4.648438 -0.359375 4.671875 -0.332031 4.671875 -0.28125 Z M 7.28125 -6.453125 C 7.382812 -6.453125 7.4375 -6.492188 7.4375 -6.578125 C 7.4375 -6.628906 7.425781 -6.679688 7.40625 -6.734375 L 6.09375 -10.34375 C 6.03125 -10.5 5.984375 -10.578125 5.953125 -10.578125 C 5.929688 -10.578125 5.882812 -10.5 5.8125 -10.34375 L 4.59375 -6.734375 C 4.5625 -6.679688 4.546875 -6.617188 4.546875 -6.546875 C 4.546875 -6.484375 4.59375 -6.453125 4.6875 -6.453125 Z M 7.28125 -6.453125 "/></g></g></g><g fill="#004aad" fill-opacity="1"><g transform="translate(236.702362, 212.681338)"><g><path d="M 7.421875 -12.28125 C 7.472656 -12.28125 7.5 -12.21875 7.5 -12.09375 L 7.734375 -10.21875 C 7.753906 -10.101562 7.765625 -10.03125 7.765625 -10 C 7.765625 -9.96875 7.71875 -9.953125 7.625 -9.953125 C 7.539062 -9.953125 7.484375 -9.960938 7.453125 -9.984375 C 7.429688 -10.003906 7.410156 -10.039062 7.390625 -10.09375 C 7.367188 -10.15625 7.34375 -10.21875 7.3125 -10.28125 C 7.28125 -10.351562 7.242188 -10.425781 7.203125 -10.5 C 7.078125 -10.769531 6.882812 -11.035156 6.625 -11.296875 C 5.976562 -11.921875 5.253906 -12.234375 4.453125 -12.234375 C 3.960938 -12.234375 3.5 -12.070312 3.0625 -11.75 C 2.632812 -11.4375 2.421875 -11.066406 2.421875 -10.640625 C 2.421875 -10.210938 2.5 -9.835938 2.65625 -9.515625 C 2.820312 -9.203125 3.035156 -8.910156 3.296875 -8.640625 C 3.554688 -8.367188 3.859375 -8.109375 4.203125 -7.859375 C 4.546875 -7.617188 4.890625 -7.375 5.234375 -7.125 C 6.171875 -6.46875 6.832031 -5.910156 7.21875 -5.453125 C 7.832031 -4.734375 8.171875 -3.929688 8.234375 -3.046875 C 8.234375 -2.046875 7.847656 -1.25 7.078125 -0.65625 C 6.316406 -0.0625 5.425781 0.234375 4.40625 0.234375 C 3.757812 0.234375 3.242188 0.164062 2.859375 0.03125 C 2.472656 -0.09375 2.207031 -0.179688 2.0625 -0.234375 C 1.914062 -0.296875 1.804688 -0.328125 1.734375 -0.328125 C 1.671875 -0.328125 1.632812 -0.328125 1.625 -0.328125 L 1.1875 -0.234375 C 1.113281 -0.234375 1.066406 -0.296875 1.046875 -0.421875 C 0.878906 -1.878906 0.796875 -2.648438 0.796875 -2.734375 C 0.796875 -2.828125 0.800781 -2.890625 0.8125 -2.921875 C 0.820312 -2.953125 0.863281 -2.96875 0.9375 -2.96875 C 1.09375 -2.96875 1.238281 -2.734375 1.375 -2.265625 C 1.988281 -0.953125 3.015625 -0.296875 4.453125 -0.296875 C 5.109375 -0.296875 5.664062 -0.492188 6.125 -0.890625 C 6.59375 -1.285156 6.828125 -1.800781 6.828125 -2.4375 C 6.828125 -3.457031 6.21875 -4.410156 5 -5.296875 C 4.65625 -5.535156 4.15625 -5.875 3.5 -6.3125 C 2.851562 -6.757812 2.335938 -7.203125 1.953125 -7.640625 C 1.347656 -8.316406 1.046875 -9.070312 1.046875 -9.90625 C 1.046875 -10.738281 1.378906 -11.421875 2.046875 -11.953125 C 2.710938 -12.492188 3.472656 -12.765625 4.328125 -12.765625 C 4.773438 -12.765625 5.265625 -12.6875 5.796875 -12.53125 C 6.335938 -12.382812 6.710938 -12.28125 6.921875 -12.21875 Z M 7.421875 -12.28125 "/></g></g></g><g fill="#004aad" fill-opacity="1"><g transform="translate(246.619943, 212.681338)"><g><path d="M 5.65625 -0.078125 C 5.65625 -0.0234375 5.628906 0 5.578125 0 L 0.40625 0 C 0.375 0 0.359375 -0.0234375 0.359375 -0.078125 L 0.359375 -0.234375 C 0.359375 -0.285156 0.476562 -0.3125 0.71875 -0.3125 C 0.96875 -0.320312 1.273438 -0.414062 1.640625 -0.59375 C 2.003906 -0.769531 2.1875 -1.039062 2.1875 -1.40625 L 2.1875 -10.984375 C 2.1875 -11.648438 1.597656 -12.015625 0.421875 -12.078125 C 0.378906 -12.078125 0.359375 -12.101562 0.359375 -12.15625 L 0.359375 -12.328125 C 0.359375 -12.367188 0.375 -12.390625 0.40625 -12.390625 L 5.578125 -12.390625 C 5.628906 -12.390625 5.65625 -12.367188 5.65625 -12.328125 L 5.65625 -12.15625 C 5.65625 -12.125 5.53125 -12.109375 5.28125 -12.109375 C 5.039062 -12.109375 4.773438 -12.035156 4.484375 -11.890625 C 4.085938 -11.703125 3.890625 -11.394531 3.890625 -10.96875 L 3.890625 -7.09375 C 3.890625 -6.570312 3.941406 -6.3125 4.046875 -6.3125 C 4.296875 -6.3125 4.613281 -6.472656 5 -6.796875 C 5.382812 -7.117188 5.726562 -7.445312 6.03125 -7.78125 C 6.332031 -8.125 6.632812 -8.523438 6.9375 -8.984375 C 7.238281 -9.453125 7.445312 -9.773438 7.5625 -9.953125 C 8 -10.566406 8.21875 -11.03125 8.21875 -11.34375 C 8.21875 -11.664062 8.082031 -11.878906 7.8125 -11.984375 C 7.632812 -12.046875 7.382812 -12.078125 7.0625 -12.078125 L 6.96875 -12.078125 C 6.925781 -12.078125 6.90625 -12.101562 6.90625 -12.15625 L 6.90625 -12.328125 C 6.90625 -12.367188 6.925781 -12.390625 6.96875 -12.390625 L 12.046875 -12.390625 C 12.097656 -12.390625 12.125 -12.367188 12.125 -12.328125 L 12.125 -12.15625 C 12.125 -12.082031 12.085938 -12.046875 12.015625 -12.046875 C 11.265625 -12.023438 10.71875 -11.925781 10.375 -11.75 C 10.03125 -11.582031 9.753906 -11.394531 9.546875 -11.1875 C 9.335938 -10.976562 9.109375 -10.664062 8.859375 -10.25 C 8.109375 -8.976562 7.363281 -7.960938 6.625 -7.203125 C 6.300781 -6.878906 6.132812 -6.679688 6.125 -6.609375 C 6.15625 -6.546875 6.394531 -6.3125 6.84375 -5.90625 C 7.96875 -4.875 9.148438 -3.476562 10.390625 -1.71875 C 10.847656 -1.039062 11.453125 -0.625 12.203125 -0.46875 C 12.703125 -0.351562 13.015625 -0.296875 13.140625 -0.296875 C 13.273438 -0.296875 13.34375 -0.269531 13.34375 -0.21875 L 13.34375 -0.078125 C 13.34375 -0.0234375 13.320312 0 13.28125 0 L 7.53125 0 C 7.488281 0 7.46875 -0.0234375 7.46875 -0.078125 L 7.46875 -0.234375 C 7.46875 -0.285156 7.566406 -0.316406 7.765625 -0.328125 C 8.421875 -0.390625 8.75 -0.585938 8.75 -0.921875 C 8.707031 -1.242188 8.117188 -2.050781 6.984375 -3.34375 C 6.785156 -3.570312 6.570312 -3.828125 6.34375 -4.109375 C 5.457031 -5.203125 4.726562 -5.75 4.15625 -5.75 L 3.984375 -5.75 C 3.921875 -5.75 3.890625 -5.710938 3.890625 -5.640625 L 3.890625 -1.515625 C 3.890625 -0.703125 4.453125 -0.296875 5.578125 -0.296875 C 5.628906 -0.296875 5.65625 -0.269531 5.65625 -0.21875 Z M 5.65625 -0.078125 "/></g></g></g><g fill="#004aad" fill-opacity="1"><g transform="translate(260.914482, 212.681338)"><g><path d="M 7.421875 -12.28125 C 7.472656 -12.28125 7.5 -12.21875 7.5 -12.09375 L 7.734375 -10.21875 C 7.753906 -10.101562 7.765625 -10.03125 7.765625 -10 C 7.765625 -9.96875 7.71875 -9.953125 7.625 -9.953125 C 7.539062 -9.953125 7.484375 -9.960938 7.453125 -9.984375 C 7.429688 -10.003906 7.410156 -10.039062 7.390625 -10.09375 C 7.367188 -10.15625 7.34375 -10.21875 7.3125 -10.28125 C 7.28125 -10.351562 7.242188 -10.425781 7.203125 -10.5 C 7.078125 -10.769531 6.882812 -11.035156 6.625 -11.296875 C 5.976562 -11.921875 5.253906 -12.234375 4.453125 -12.234375 C 3.960938 -12.234375 3.5 -12.070312 3.0625 -11.75 C 2.632812 -11.4375 2.421875 -11.066406 2.421875 -10.640625 C 2.421875 -10.210938 2.5 -9.835938 2.65625 -9.515625 C 2.820312 -9.203125 3.035156 -8.910156 3.296875 -8.640625 C 3.554688 -8.367188 3.859375 -8.109375 4.203125 -7.859375 C 4.546875 -7.617188 4.890625 -7.375 5.234375 -7.125 C 6.171875 -6.46875 6.832031 -5.910156 7.21875 -5.453125 C 7.832031 -4.734375 8.171875 -3.929688 8.234375 -3.046875 C 8.234375 -2.046875 7.847656 -1.25 7.078125 -0.65625 C 6.316406 -0.0625 5.425781 0.234375 4.40625 0.234375 C 3.757812 0.234375 3.242188 0.164062 2.859375 0.03125 C 2.472656 -0.09375 2.207031 -0.179688 2.0625 -0.234375 C 1.914062 -0.296875 1.804688 -0.328125 1.734375 -0.328125 C 1.671875 -0.328125 1.632812 -0.328125 1.625 -0.328125 L 1.1875 -0.234375 C 1.113281 -0.234375 1.066406 -0.296875 1.046875 -0.421875 C 0.878906 -1.878906 0.796875 -2.648438 0.796875 -2.734375 C 0.796875 -2.828125 0.800781 -2.890625 0.8125 -2.921875 C 0.820312 -2.953125 0.863281 -2.96875 0.9375 -2.96875 C 1.09375 -2.96875 1.238281 -2.734375 1.375 -2.265625 C 1.988281 -0.953125 3.015625 -0.296875 4.453125 -0.296875 C 5.109375 -0.296875 5.664062 -0.492188 6.125 -0.890625 C 6.59375 -1.285156 6.828125 -1.800781 6.828125 -2.4375 C 6.828125 -3.457031 6.21875 -4.410156 5 -5.296875 C 4.65625 -5.535156 4.15625 -5.875 3.5 -6.3125 C 2.851562 -6.757812 2.335938 -7.203125 1.953125 -7.640625 C 1.347656 -8.316406 1.046875 -9.070312 1.046875 -9.90625 C 1.046875 -10.738281 1.378906 -11.421875 2.046875 -11.953125 C 2.710938 -12.492188 3.472656 -12.765625 4.328125 -12.765625 C 4.773438 -12.765625 5.265625 -12.6875 5.796875 -12.53125 C 6.335938 -12.382812 6.710938 -12.28125 6.921875 -12.21875 Z M 7.421875 -12.28125 "/></g></g></g><g fill="#004aad" fill-opacity="1"><g transform="translate(270.832069, 212.681338)"><g><path d="M 11.265625 -0.75 C 10.753906 -0.445312 10.195312 -0.207031 9.59375 -0.03125 C 8.988281 0.144531 8.453125 0.234375 7.984375 0.234375 C 7.023438 0.234375 6.109375 0.078125 5.234375 -0.234375 C 4.046875 -0.660156 3.085938 -1.300781 2.359375 -2.15625 C 1.429688 -3.238281 0.96875 -4.613281 0.96875 -6.28125 C 0.96875 -7.476562 1.273438 -8.570312 1.890625 -9.5625 C 2.503906 -10.550781 3.351562 -11.332031 4.4375 -11.90625 C 5.53125 -12.476562 6.703125 -12.765625 7.953125 -12.765625 C 9.203125 -12.765625 10.320312 -12.484375 11.3125 -11.921875 C 12.300781 -11.367188 13.09375 -10.601562 13.6875 -9.625 C 14.289062 -8.65625 14.59375 -7.601562 14.59375 -6.46875 C 14.59375 -5.332031 14.296875 -4.253906 13.703125 -3.234375 C 13.109375 -2.210938 12.296875 -1.382812 11.265625 -0.75 Z M 2.8125 -6.546875 C 2.8125 -5.578125 3.023438 -4.613281 3.453125 -3.65625 C 3.890625 -2.695312 4.507812 -1.914062 5.3125 -1.3125 C 6.113281 -0.707031 7.039062 -0.40625 8.09375 -0.40625 C 9.59375 -0.40625 10.765625 -0.984375 11.609375 -2.140625 C 12.359375 -3.171875 12.734375 -4.492188 12.734375 -6.109375 C 12.734375 -7.722656 12.269531 -9.113281 11.34375 -10.28125 C 10.894531 -10.84375 10.34375 -11.296875 9.6875 -11.640625 C 9.03125 -11.984375 8.367188 -12.15625 7.703125 -12.15625 C 7.046875 -12.15625 6.503906 -12.082031 6.078125 -11.9375 C 5.648438 -11.789062 5.265625 -11.585938 4.921875 -11.328125 C 4.578125 -11.078125 4.269531 -10.773438 4 -10.421875 C 3.738281 -10.066406 3.519531 -9.6875 3.34375 -9.28125 C 2.988281 -8.4375 2.8125 -7.523438 2.8125 -6.546875 Z M 2.8125 -6.546875 "/></g></g></g><g fill="#004aad" fill-opacity="1"><g transform="translate(287.288717, 212.681338)"><g><path d="M 0.59375 0 C 0.550781 0 0.53125 -0.0234375 0.53125 -0.078125 L 0.53125 -0.28125 C 0.53125 -0.332031 0.554688 -0.359375 0.609375 -0.359375 L 0.8125 -0.359375 C 1.132812 -0.359375 1.359375 -0.382812 1.484375 -0.4375 C 1.910156 -0.644531 2.125 -1.226562 2.125 -2.1875 L 2.125 -11.3125 C 2.125 -11.707031 1.742188 -11.941406 0.984375 -12.015625 C 0.816406 -12.035156 0.695312 -12.046875 0.625 -12.046875 C 0.5625 -12.046875 0.53125 -12.066406 0.53125 -12.109375 L 0.53125 -12.328125 C 0.53125 -12.367188 0.550781 -12.390625 0.59375 -12.390625 L 3.8125 -12.390625 L 12.15625 -3.171875 C 12.1875 -3.140625 12.207031 -3.113281 12.21875 -3.09375 C 12.226562 -3.082031 12.242188 -3.078125 12.265625 -3.078125 C 12.296875 -3.078125 12.3125 -3.109375 12.3125 -3.171875 L 12.3125 -9.21875 C 12.3125 -10.382812 12.210938 -11.144531 12.015625 -11.5 C 11.828125 -11.863281 11.441406 -12.046875 10.859375 -12.046875 L 10.40625 -12.046875 C 10.363281 -12.046875 10.34375 -12.066406 10.34375 -12.109375 L 10.34375 -12.328125 C 10.34375 -12.367188 10.363281 -12.390625 10.40625 -12.390625 L 14.984375 -12.390625 C 15.023438 -12.390625 15.046875 -12.367188 15.046875 -12.328125 L 15.046875 -12.109375 C 15.046875 -12.066406 14.957031 -12.046875 14.78125 -12.046875 C 14.613281 -12.046875 14.332031 -11.941406 13.9375 -11.734375 C 13.539062 -11.535156 13.34375 -11.289062 13.34375 -11 L 13.34375 -0.25 C 13.34375 -0.125 13.320312 -0.0351562 13.28125 0.015625 C 13.25 0.078125 13.164062 0.109375 13.03125 0.109375 C 12.90625 0.109375 12.804688 0.0820312 12.734375 0.03125 C 12.671875 -0.0195312 12.597656 -0.0976562 12.515625 -0.203125 L 3.453125 -10.25 C 3.390625 -10.3125 3.335938 -10.34375 3.296875 -10.34375 C 3.265625 -10.34375 3.25 -10.3125 3.25 -10.25 L 3.25 -1.484375 C 3.25 -0.941406 3.671875 -0.585938 4.515625 -0.421875 C 4.753906 -0.378906 4.929688 -0.359375 5.046875 -0.359375 C 5.171875 -0.359375 5.234375 -0.332031 5.234375 -0.28125 L 5.234375 -0.078125 C 5.234375 -0.0234375 5.210938 0 5.171875 0 Z M 0.59375 0 "/></g></g></g><g fill="#004aad" fill-opacity="1"><g transform="translate(303.543217, 212.681338)"><g><path d="M 0.421875 0 C 0.378906 0 0.359375 -0.0234375 0.359375 -0.078125 L 0.359375 -0.28125 C 0.359375 -0.332031 0.378906 -0.359375 0.421875 -0.359375 L 0.640625 -0.359375 C 1.140625 -0.359375 1.578125 -0.460938 1.953125 -0.671875 C 2.109375 -0.753906 2.234375 -0.890625 2.328125 -1.078125 C 2.429688 -1.265625 2.484375 -1.472656 2.484375 -1.703125 L 2.484375 -11 C 2.484375 -11.363281 2.25 -11.640625 1.78125 -11.828125 C 1.445312 -11.972656 1.097656 -12.046875 0.734375 -12.046875 L 0.53125 -12.046875 C 0.488281 -12.046875 0.46875 -12.066406 0.46875 -12.109375 L 0.46875 -12.328125 C 0.46875 -12.367188 0.488281 -12.390625 0.53125 -12.390625 L 6.484375 -12.390625 C 6.535156 -12.390625 6.5625 -12.367188 6.5625 -12.328125 L 6.5625 -12.109375 C 6.5625 -12.066406 6.535156 -12.046875 6.484375 -12.046875 L 6.109375 -12.046875 C 5.503906 -12.046875 4.972656 -11.957031 4.515625 -11.78125 C 4.378906 -11.738281 4.289062 -11.660156 4.25 -11.546875 C 4.207031 -11.441406 4.1875 -11.257812 4.1875 -11 L 4.1875 -1.25 C 4.195312 -1.144531 4.25 -1.046875 4.34375 -0.953125 C 4.4375 -0.867188 4.546875 -0.828125 4.671875 -0.828125 L 8.140625 -0.828125 C 8.660156 -0.828125 9.171875 -1.140625 9.671875 -1.765625 C 9.804688 -1.921875 9.972656 -2.132812 10.171875 -2.40625 C 10.378906 -2.6875 10.503906 -2.84375 10.546875 -2.875 C 10.734375 -3.007812 10.828125 -3.003906 10.828125 -2.859375 C 10.828125 -2.828125 10.816406 -2.796875 10.796875 -2.765625 L 9.46875 -0.15625 C 9.414062 -0.0507812 9.359375 0 9.296875 0 Z M 0.421875 0 "/></g></g></g><g fill="#004aad" fill-opacity="1"><g transform="translate(315.332874, 212.681338)"><g><path d="M 2.21875 -10.984375 C 2.21875 -11.691406 1.8125 -12.046875 1 -12.046875 C 0.875 -12.046875 0.8125 -12.066406 0.8125 -12.109375 L 0.8125 -12.328125 C 0.8125 -12.367188 0.832031 -12.390625 0.875 -12.390625 L 5.28125 -12.390625 C 5.332031 -12.390625 5.359375 -12.367188 5.359375 -12.328125 L 5.359375 -12.109375 C 5.359375 -12.066406 5.226562 -12.046875 4.96875 -12.046875 C 4.707031 -12.046875 4.46875 -11.960938 4.25 -11.796875 C 4.03125 -11.628906 3.921875 -11.289062 3.921875 -10.78125 L 3.921875 -1.40625 C 3.921875 -0.707031 4.332031 -0.359375 5.15625 -0.359375 C 5.269531 -0.359375 5.328125 -0.332031 5.328125 -0.28125 L 5.328125 -0.078125 C 5.328125 -0.0234375 5.304688 0 5.265625 0 L 0.859375 0 C 0.816406 0 0.796875 -0.0234375 0.796875 -0.078125 L 0.796875 -0.28125 C 0.796875 -0.332031 0.921875 -0.359375 1.171875 -0.359375 C 1.429688 -0.359375 1.671875 -0.4375 1.890625 -0.59375 C 2.109375 -0.757812 2.21875 -1.097656 2.21875 -1.609375 Z M 2.21875 -10.984375 "/></g></g></g><g fill="#004aad" fill-opacity="1"><g transform="translate(322.376438, 212.681338)"><g><path d="M 0.59375 0 C 0.550781 0 0.53125 -0.0234375 0.53125 -0.078125 L 0.53125 -0.28125 C 0.53125 -0.332031 0.554688 -0.359375 0.609375 -0.359375 L 0.8125 -0.359375 C 1.132812 -0.359375 1.359375 -0.382812 1.484375 -0.4375 C 1.910156 -0.644531 2.125 -1.226562 2.125 -2.1875 L 2.125 -11.3125 C 2.125 -11.707031 1.742188 -11.941406 0.984375 -12.015625 C 0.816406 -12.035156 0.695312 -12.046875 0.625 -12.046875 C 0.5625 -12.046875 0.53125 -12.066406 0.53125 -12.109375 L 0.53125 -12.328125 C 0.53125 -12.367188 0.550781 -12.390625 0.59375 -12.390625 L 3.8125 -12.390625 L 12.15625 -3.171875 C 12.1875 -3.140625 12.207031 -3.113281 12.21875 -3.09375 C 12.226562 -3.082031 12.242188 -3.078125 12.265625 -3.078125 C 12.296875 -3.078125 12.3125 -3.109375 12.3125 -3.171875 L 12.3125 -9.21875 C 12.3125 -10.382812 12.210938 -11.144531 12.015625 -11.5 C 11.828125 -11.863281 11.441406 -12.046875 10.859375 -12.046875 L 10.40625 -12.046875 C 10.363281 -12.046875 10.34375 -12.066406 10.34375 -12.109375 L 10.34375 -12.328125 C 10.34375 -12.367188 10.363281 -12.390625 10.40625 -12.390625 L 14.984375 -12.390625 C 15.023438 -12.390625 15.046875 -12.367188 15.046875 -12.328125 L 15.046875 -12.109375 C 15.046875 -12.066406 14.957031 -12.046875 14.78125 -12.046875 C 14.613281 -12.046875 14.332031 -11.941406 13.9375 -11.734375 C 13.539062 -11.535156 13.34375 -11.289062 13.34375 -11 L 13.34375 -0.25 C 13.34375 -0.125 13.320312 -0.0351562 13.28125 0.015625 C 13.25 0.078125 13.164062 0.109375 13.03125 0.109375 C 12.90625 0.109375 12.804688 0.0820312 12.734375 0.03125 C 12.671875 -0.0195312 12.597656 -0.0976562 12.515625 -0.203125 L 3.453125 -10.25 C 3.390625 -10.3125 3.335938 -10.34375 3.296875 -10.34375 C 3.265625 -10.34375 3.25 -10.3125 3.25 -10.25 L 3.25 -1.484375 C 3.25 -0.941406 3.671875 -0.585938 4.515625 -0.421875 C 4.753906 -0.378906 4.929688 -0.359375 5.046875 -0.359375 C 5.171875 -0.359375 5.234375 -0.332031 5.234375 -0.28125 L 5.234375 -0.078125 C 5.234375 -0.0234375 5.210938 0 5.171875 0 Z M 0.59375 0 "/></g></g></g><g fill="#004aad" fill-opacity="1"><g transform="translate(338.630926, 212.681338)"><g><path d="M 0.0625 -0.078125 L 0.0625 -0.3125 C 0.0625 -0.363281 0.0820312 -0.390625 0.125 -0.390625 L 0.328125 -0.390625 C 0.566406 -0.398438 0.816406 -0.40625 1.078125 -0.40625 C 1.335938 -0.414062 1.570312 -0.453125 1.78125 -0.515625 C 2.257812 -0.648438 2.5 -1 2.5 -1.5625 L 2.5 -10.828125 C 2.5 -11.410156 2.160156 -11.78125 1.484375 -11.9375 C 1.285156 -11.976562 1.085938 -12.015625 0.890625 -12.046875 L 0.703125 -12.046875 C 0.660156 -12.046875 0.640625 -12.066406 0.640625 -12.109375 L 0.640625 -12.328125 C 0.640625 -12.367188 0.660156 -12.390625 0.703125 -12.390625 L 9.0625 -12.390625 C 9.164062 -12.390625 9.238281 -12.367188 9.28125 -12.328125 C 9.332031 -12.296875 9.363281 -12.210938 9.375 -12.078125 L 9.53125 -9.53125 C 9.53125 -9.476562 9.484375 -9.453125 9.390625 -9.453125 C 9.304688 -9.453125 9.25 -9.476562 9.21875 -9.53125 C 9.175781 -9.582031 9.125 -9.789062 9.0625 -10.15625 C 9.007812 -10.53125 8.910156 -10.84375 8.765625 -11.09375 C 8.617188 -11.34375 8.363281 -11.5 8 -11.5625 L 4.328125 -11.5625 C 4.253906 -11.5625 4.21875 -11.519531 4.21875 -11.4375 L 4.21875 -6.90625 C 4.21875 -6.84375 4.25 -6.8125 4.3125 -6.8125 L 7.34375 -6.8125 C 8.132812 -6.8125 8.53125 -7.269531 8.53125 -8.1875 C 8.53125 -8.226562 8.550781 -8.25 8.59375 -8.25 L 8.8125 -8.25 C 8.851562 -8.25 8.875 -8.226562 8.875 -8.1875 L 8.875 -4.421875 C 8.875 -4.367188 8.851562 -4.34375 8.8125 -4.34375 L 8.59375 -4.34375 C 8.550781 -4.34375 8.53125 -4.367188 8.53125 -4.421875 C 8.53125 -5.285156 8.273438 -5.785156 7.765625 -5.921875 C 7.628906 -5.960938 7.484375 -5.984375 7.328125 -5.984375 L 4.3125 -5.984375 C 4.25 -5.984375 4.21875 -5.953125 4.21875 -5.890625 L 4.21875 -1.609375 C 4.21875 -1.171875 4.421875 -0.921875 4.828125 -0.859375 C 4.941406 -0.835938 5.0625 -0.828125 5.1875 -0.828125 L 8.125 -0.828125 C 8.726562 -0.828125 9.195312 -1.097656 9.53125 -1.640625 C 9.769531 -2.015625 9.914062 -2.445312 9.96875 -2.9375 C 9.988281 -3.101562 10.078125 -3.1875 10.234375 -3.1875 C 10.304688 -3.1875 10.34375 -3.148438 10.34375 -3.078125 L 10.046875 -0.125 C 10.015625 -0.0390625 9.972656 0 9.921875 0 L 0.125 0 C 0.0820312 0 0.0625 -0.0234375 0.0625 -0.078125 Z M 0.0625 -0.078125 "/></g></g></g></svg>